# xmcd
#
# Track frame offsets:
#	150
#	11776
#	21512
#	27408
#	40327
#	50433
#	60067
#	70816
#	82243
#	92576
#	104931
#	115380
#	125880
#	136684
#	146541
#
# Disc length: 2053 seconds
#
# Revision: 1
# Processed by: cddbd v1.5.2PL0 Copyright (c) Steve Scherf et al.
# Submitted via: audiograbber 1.83.01
#
DISCID=da08030f
DTITLE=Various Artist - Country Legends CD9 I Walk The Line
DYEAR=2005
DGENRE=Country
TTITLE0=Freddy Fender - Before The Next Teardrop Falls
TTITLE1=Ned Miller - From A Jack To A King
TTITLE2=Loretta Lynn - The Pill
TTITLE3=Ed Bruce (aka Edwin Bruce) - Set Me Free
TTITLE4=Mickey Gilley - I Miss You So
TTITLE5=Jeannie C. Riley - The Girl Most Likely
TTITLE6=Conway Twitty (aka Harold Jenkins) - Big Train
TTITLE7=Jerry Wallace - There She Goes
TTITLE8=Dolly Parton - Release Me
TTITLE9=Johnny Cash - I Walk The Line
TTITLE10=Jim Reeves - Just Call Me Lonesome
TTITLE11=Patsy Cline - I Love You Honey
TTITLE12=Kenny Rogers and The First Edition - Good Time Liberator
TTITLE13=Jimmie C. Newman - Alligator Man
TTITLE14=Anne Murray - Paths Of Victory
EXTD=
EXTT0=
EXTT1=
EXTT2=
EXTT3=
EXTT4=
EXTT5=
EXTT6=
EXTT7=
EXTT8=
EXTT9=
EXTT10=
EXTT11=
EXTT12=
EXTT13=
EXTT14=
PLAYORDER=
